# xmcd
#
# Track frame offsets:
#	150
#	17262
#	27838
#	45539
#	59166
#	68916
#	85141
#	98671
#	115764
#	128575
#	144402
#	157533
#
# Disc length: 2285 seconds
#
# Revision: 1
# Processed by: cddbd v1.5.2PL0 Copyright (c) Steve Scherf et al.
# Submitted via: audiograbber 1.83.01
#
DISCID=8a08eb0c
DTITLE=Noel Cassidy - Lovers And Friends
DYEAR=1900
DGENRE=
TTITLE0=Lovers And Friends
TTITLE1=Moods Of Mary
TTITLE2=You Seldom Come To See Me Anymore
TTITLE3=Rocks Of Bawn
TTITLE4=Going To Have Love
TTITLE5=Rose Of The Mountain
TTITLE6=Train Melody
TTITLE7=Lusmagh Fields
TTITLE8=Darcy Farrow
TTITLE9=Shadow Of My Mind
TTITLE10=My Town Ballinamuck
TTITLE11=Hand That Rocks The Cradle
EXTD=
EXTT0=
EXTT1=
EXTT2=
EXTT3=
EXTT4=
EXTT5=
EXTT6=
EXTT7=
EXTT8=
EXTT9=
EXTT10=
EXTT11=
PLAYORDER=
